<?xml version="1.0" encoding="utf-8"?>
<!-- Generator: Adobe Illustrator 24.0.1, SVG Export Plug-In . SVG Version: 6.00 Build 0)  -->
<svg version="1.1" id="Layer_1" xmlns="http://www.w3.org/2000/svg" xmlns:xlink="http://www.w3.org/1999/xlink" x="0px" y="0px"
	 viewBox="0 0 450 400" style="enable-background:new 0 0 450 400;" xml:space="preserve">
<style type="text/css">
	.st0{fill:url(#SVGID_1_);}
	.st1{fill:url(#SVGID_2_);}
	.st2{fill:#18C472;}
	.st3{fill:url(#SVGID_3_);}
</style>
<g>
	<linearGradient id="SVGID_1_" gradientUnits="userSpaceOnUse" x1="176.6601" y1="194.9607" x2="234.7313" y2="48.2546">
		<stop  offset="0" style="stop-color:#12877C"/>
		<stop  offset="1" style="stop-color:#02A284"/>
	</linearGradient>
	<path class="st0" d="M225.2,26.4c-44.7,0-85.5,26.2-103.9,66.7l-0.6,1.3c-6.3,14.4-9.5,29.6-9.5,45.4c0,20,5.3,39.6,15.2,56.7
		c10,17.2,24.6,31.6,41.8,41.6c-6.9-10.4-11.1-22.7-11.4-36c0-0.5,0-1.1,0-1.8c0-0.6,0-1.2,0-1.8c0.2-17.6,4-34.9,11.4-51.1l0.6-1.3
		c11.1-23.7,29.7-44,52.6-57.2c19.5-11.3,41.9-17.2,64.6-17.2c11.5,0,22.7,1.5,33.5,4.4C298.5,45.4,263.3,26.4,225.2,26.4z"/>
	<linearGradient id="SVGID_2_" gradientUnits="userSpaceOnUse" x1="238.2659" y1="128.5248" x2="378.8593" y2="220.2162">
		<stop  offset="8.033988e-03" style="stop-color:#02A284"/>
		<stop  offset="1" style="stop-color:#18C472"/>
	</linearGradient>
	<path class="st1" d="M400,201.6c0-44.7-26.2-85.5-66.7-103.9l-1.3-0.6c-14.4-6.3-29.6-9.5-45.4-9.5c-20,0-39.6,5.3-56.7,15.2
		c-17.2,10-31.6,24.6-41.6,41.8c10.3-6.9,22.7-11.1,36-11.4c1,0,2.3,0,3.5,0c17.8,0.2,35,4.1,51.2,11.4l1.3,0.6
		c23.8,11.1,44,29.7,57.1,52.6c11.3,19.5,17.2,41.9,17.2,64.6c0,11.5-1.5,22.7-4.4,33.5C381,274.9,400,239.7,400,201.6z"/>
	<path class="st2" d="M130.5,324.9c21,30.7,56.2,49.8,94.3,49.8c44.4,0,84.9-25.9,103.5-65.9l0.4-0.8c6.7-14.7,10.1-30.4,10.1-46.7
		c0-20-5.3-39.6-15.2-56.7c-10-17.2-24.6-31.7-41.8-41.6c6.9,10.3,11.1,22.7,11.4,36c0,0.5,0,1.1,0,1.8c0,0.6,0,1.2,0,1.8
		c-0.2,17.2-3.8,33.9-10.7,49.6v0l-0.7,1.5c-11,24.3-29.9,45.1-53.2,58.4c-19.6,11.3-41.9,17.2-64.6,17.2
		C152.6,329.3,141.4,327.8,130.5,324.9z"/>
	<linearGradient id="SVGID_3_" gradientUnits="userSpaceOnUse" x1="182.7297" y1="278.6059" x2="63.531" y2="168.5763">
		<stop  offset="8.033988e-03" style="stop-color:#086C6A"/>
		<stop  offset="1" style="stop-color:#12877C"/>
	</linearGradient>
	<path class="st3" d="M220.2,299.9c17.2-10,31.6-24.6,41.6-41.8c-10.3,6.9-22.7,11.1-36,11.4c-1.1,0-2.4,0-3.6,0
		c-17.7-0.2-34.9-4.1-51.1-11.4l-4.4-2V256c-22.4-11.2-41.4-29.2-54-51c-11.3-19.5-17.2-41.9-17.2-64.6c0-11.5,1.5-22.7,4.4-33.5
		C69,127.9,50,163.1,50,201.2c0,44.7,26.2,85.5,66.7,103.8l1.9,0.9c14.2,6.1,29.3,9.2,44.8,9.2C183.4,315.1,203,309.9,220.2,299.9z"
		/>
</g>
</svg>
